<?xml version="1.0" standalone="no"?>
<svg version="1.0" xmlns="http://www.w3.org/2000/svg"
 width="200" height="200" viewBox="0 0 2000 2000"
 preserveAspectRatio="xMidYMid meet">
<g transform="translate(0.000000,2000.000000) scale(0.100000,-0.100000)"
fill="#3b82f6" stroke="none">
<path d="M5565 18283 c-460 -37 -868 -131 -1264 -289 -161 -65 -495 -235 -639
-325 -269 -168 -489 -346 -742 -599 -340 -339 -566 -652 -778 -1077 -217 -434
-344 -862 -409 -1373 -17 -139 -18 -344 -18 -4620 0 -4260 1 -4482 18 -4620
48 -387 129 -709 264 -1050 217 -550 536 -1027 970 -1450 613 -598 1382 -985
2223 -1119 304 -48 84 -46 4820 -46 4190 0 4463 1 4595 18 397 49 730 132
1065 264 846 333 1583 960 2045 1743 295 499 477 1041 552 1640 17 138 18 360
18 4620 0 3662 -2 4494 -13 4580 -70 549 -197 985 -416 1420 -204 407 -427
718 -751 1049 -325 332 -667 584 -1083 795 -479 243 -928 374 -1476 431 -132
13 -647 15 -4545 13 -2418 -1 -4414 -3 -4436 -5z m6198 -1375 c129 -61 223
-191 234 -326 11 -136 -30 -285 -101 -369 l-28 -33 -1828 0 -1828 0 -24 33
c-39 50 -74 126 -87 185 -51 241 81 494 279 533 19 4 775 6 1680 5 l1645 -1
58 -27z m-73 -3223 l0 -2365 1752 -2848 c963 -1566 1776 -2887 1806 -2937 147
-239 217 -472 229 -760 19 -473 -150 -908 -482 -1240 -252 -253 -591 -419
-945 -465 -61 -8 -1233 -10 -4070 -8 -3791 3 -3989 4 -4060 21 -41 10 -127 36
-191 57 -572 190 -991 672 -1100 1265 -29 157 -31 424 -6 562 39 206 110 398
211 565 34 57 851 1384 1814 2951 l1752 2847 0 2360 0 2360 1645 0 1645 0 0
-2365z"/>
<path d="M7034 7676 c-631 -1029 -1168 -1902 -1192 -1939 -217 -339 -267 -743
-136 -1119 70 -199 162 -345 312 -490 192 -185 402 -295 665 -345 87 -17 276
-18 3352 -18 3106 0 3264 1 3355 18 278 53 510 177 698 371 355 368 455 904
257 1377 -24 57 -315 540 -856 1420 -451 734 -824 1338 -829 1343 -4 4 -44 -8
-88 -28 -250 -113 -553 -201 -832 -243 -155 -22 -590 -25 -740 -4 -496 69
-919 229 -1340 506 -162 107 -293 209 -487 381 -196 174 -291 247 -465 361
-121 79 -385 223 -489 266 l-36 15 -1149 -1872z m3361 -497 c873 -72 1398
-410 1550 -996 43 -164 46 -256 43 -1129 l-3 -821 -27 -35 c-37 -49 -89 -71
-150 -66 -55 6 -92 28 -125 78 l-23 33 0 813 c0 891 -3 958 -58 1112 -133 376
-487 588 -1114 668 -192 24 -655 30 -860 10 -609 -58 -982 -227 -1158 -526
-45 -75 -94 -215 -109 -310 -7 -42 -11 -365 -11 -896 0 -594 -3 -841 -11 -865
-14 -40 -53 -85 -91 -105 -72 -38 -179 1 -217 79 -21 43 -21 51 -21 850 0 521
4 843 11 909 32 295 136 523 329 718 179 181 368 288 668 376 358 106 879 145
1377 103z m-135 -579 c524 -46 880 -246 1050 -589 44 -89 64 -144 93 -261 19
-81 21 -117 24 -785 l4 -700 -23 -45 c-32 -62 -85 -92 -156 -87 -59 4 -94 25
-129 77 l-23 33 0 631 c0 689 -6 782 -55 911 -36 96 -69 150 -134 218 -128
135 -300 210 -581 254 -133 21 -493 23 -630 4 -469 -65 -705 -246 -775 -593
-12 -65 -15 -185 -16 -735 -1 -672 -1 -687 -39 -739 -69 -95 -227 -79 -279 29
-21 43 -21 54 -21 683 0 679 5 756 51 924 90 328 338 572 700 688 117 38 272
69 399 81 135 12 405 13 540 1z m-115 -581 c421 -52 669 -309 715 -744 5 -49
10 -297 10 -550 0 -458 0 -461 -22 -505 -32 -62 -85 -92 -156 -87 -59 4 -94
25 -129 77 -23 33 -23 33 -23 464 0 237 -5 480 -10 540 -33 341 -182 475 -531
476 -125 0 -232 -21 -309 -60 -92 -47 -167 -153 -200 -285 -10 -36 -15 -198
-19 -576 l-6 -526 -25 -36 c-81 -118 -245 -97 -297 38 -15 39 -17 876 -2 1013
20 189 63 318 149 445 166 245 482 362 855 316z"/>
</g>
</svg>
